

Wild.Target.2010.720p.BRRip.XviD.AC3-RSB:


Screens:




Plot:

Victor Maynard is a middle-aged, solitary assassin, who lives to please his formidable mother, despite his own peerless reputation for lethal efficiency. His professional routine is interrupted when he finds himself drawn to one of his intended victims, Rose. He spares her life, unexpectedly acquiring in the process a young apprentice, Tony. Believing Victor to be a private detective, his two new companions tag along, while he attempts to thwart the murderous attentions of his unhappy client.


Cast:

Bill Nighy	... 	Victor Maynard
Emily Blunt	... 	Rose
Rupert Grint	... 	Tony
Rupert Everett	... 	Ferguson
Eileen Atkins	... 	Louisa Maynard
Martin Freeman	... 	Hector Dixon
Gregor Fisher	... 	Mike
Graham Seed	... 	Appraiser
Duncan Duff	... 	Jeweller
Stephanie Lammond	... 	Hotel receptionist
Philip Battley	... 	Barman
Geoff Bell	... 	Fabian
Sia Berkeley	... 	Hotel Receptionist
Rory Kinnear	... 	Gerry Bailey
James O'Donnell	... 	Barney
George Rainsford	... 	Waiter
Alexis Rodney	... 	Shabby Hotel Receptionist
Adrian Schiller	... 	Forger


SOURCE: Wild Target 2010 720p BluRay DTS x264-CRiSC

AUDIO LANGUAGE: English


Format                           : AVI
File size                        : 2.17 GiB
Duration                         : 1h 37mn
Overall bit rate                 : 3 180 Kbps

Video
Format                           : MPEG-4 Visual
Format settings, BVOP            : 1
Format settings, QPel            : No
Format settings, GMC             : No warppoints
Codec ID/Hint                    : XviD
Duration                         : 1h 37mn
Bit rate                         : 2 976 Kbps
Width                            : 1 280 pixels
Height                           : 720 pixels
Display aspect ratio             : 16:9
Frame rate                       : 24.000 fps
Color space                      : YUV
Chroma subsampling               : 4:2:0
Bit depth                        : 8 bits
Scan type                        : Progressive
Bits/(Pixel*Frame)               : 0.135
Stream size                      : 2.03 GiB (94%)

Audio
Format                           : AC-3
Mode extension                   : CM (complete main)
Duration                         : 1h 37mn
Bit rate mode                    : Constant
Bit rate                         : 192 Kbps
Channel(s)                       : 6 channels
Channel positions                : Front: L C R, Side: L R, LFE
Sampling rate                    : 48.0 KHz
Bit depth                        : 16 bits
Stream size                      : 134 MiB (6%)
Alignment                        : Split accross interleaves
Interleave, duration             : 42 ms (1.00 video frame)
Interleave, preload duration     : 500 ms


          EnJoY iT ! :)


